<?xml version="1.0" standalone="no"?>
<!DOCTYPE svg PUBLIC "-//W3C//DTD SVG 20010904//EN"
 "http://www.w3.org/TR/2001/REC-SVG-20010904/DTD/svg10.dtd">
<svg version="1.0" xmlns="http://www.w3.org/2000/svg"
 width="640.000000pt" height="640.000000pt" viewBox="0 0 640.000000 640.000000"
 preserveAspectRatio="xMidYMid meet">
<metadata>
Created by potrace 1.14, written by Peter Selinger 2001-2017
</metadata>
<g transform="translate(0.000000,640.000000) scale(0.100000,-0.100000)"
fill="#000000" stroke="none">
<path d="M379 5936 c-2 -3 -17 -7 -32 -10 -32 -6 -129 -49 -153 -68 -90 -73
-145 -150 -174 -246 -19 -62 -20 -110 -20 -2396 0 -1549 3 -2351 10 -2387 33
-172 181 -323 353 -358 37 -8 883 -10 2867 -9 l2815 3 57 23 c124 50 232 161
274 283 18 52 19 127 18 2424 0 1304 -2 2379 -4 2390 -1 11 -17 52 -36 91 -55
118 -155 204 -282 245 -55 17 -177 18 -2873 18 -1549 1 -2818 -1 -2820 -3z
m1975 -2051 l686 -685 -686 -685 -685 -685 -229 228 -229 227 457 458 457 457
-452 452 c-249 249 -453 457 -453 461 0 7 437 454 447 456 1 1 310 -307 687
-684z m2516 -1827 l0 -228 -913 0 c-863 0 -914 1 -915 18 -1 9 -1 37 -1 62 0
25 0 51 0 58 -1 6 -1 19 -1 27 0 8 0 22 0 30 0 8 0 22 0 30 0 8 0 22 0 30 0 8
0 21 -1 28 0 6 0 21 1 32 0 11 0 44 0 74 0 29 2 57 5 60 2 4 413 7 914 7 l910
0 1 -228z"/>
</g>
</svg>
